# xmcd
#
# Track frame offsets:
#	150
#	24436
#	37050
#	54005
#	70324
#	86639
#	99944
#	123310
#	135327
#	150945
#
# Disc length: 2170 seconds
#
# Revision: 4
# Processed by: cddbd v1.5.2PL0 Copyright (c) Steve Scherf et al.
# Submitted via: audiograbber 1.83.01
#
DISCID=6f08780a
DTITLE=Johnny Cash - Johnny 99
DYEAR=1983
DGENRE=Country
TTITLE0=Highway Patrolman
TTITLE1=That's The Truth
TTITLE2=God Bless Robert E. Lee
TTITLE3=New Cut Road
TTITLE4=Johnny 99
TTITLE5=Ballad Of The Ark
TTITLE6=Joshua Gone Barbados
TTITLE7=Girl From The Canyon
TTITLE8=Brand New Dance
TTITLE9=I'm Ragged But I'm Right
EXTD=Original Album Classics (2018) [Box-Set]\n\nMARO\n
EXTT0=
EXTT1=
EXTT2=
EXTT3=
EXTT4=
EXTT5=
EXTT6=
EXTT7=
EXTT8=
EXTT9=
PLAYORDER=
